Ripper ...........: IMAGiNE IMDB Rating.......:5.5/10 

Video Codec.......: XViD Release Date......:04/04/11

Audio Codec.......:MP3 Theatre Date......:01/04/11

Audio Bitrate.....:128 Runtime.......:1h 30mn

Subtitles.........:NIL Language..........:ENGLISH

Resolution...... 640 x 320 IMDb URL.......... http://www.imdb.com/title/tt1411704/





DETAILS:



Video

ID : 0

Format : MPEG-4 Visual

Format profile : Advanced Simple@L5

Format settings, BVOP : 2

Format settings, QPel : No

Format settings, GMC : No warppoints

Format settings, Matrix : Default (MPEG)

Muxing mode : Packed bitstream

Codec ID : XVID

Codec ID/Hint : XviD

Duration : 1h 29mn

Bit rate : 968 Kbps

Width : 640 pixels

Height : 320 pixels

Display aspect ratio : 2.000

Frame rate : 23.976 fps

Color space : YUV

Chroma subsampling : 4:2:0

Bit depth : 8 bits

Scan type : Progressive

Compression mode : Lossy

Bits/(Pixel*Frame) : 0.197

Stream size : 623 MiB (88%)

Writing library : XviD 1.2.1 (UTC 2008-12-04)



Audio

ID : 1

Format : MPEG Audio

Format version : Version 1

Format profile : Layer 3

Mode : Joint stereo

Mode extension : MS Stereo

Codec ID : 55

Codec ID/Hint : MP3

Duration : 1h 29mn

Bit rate mode : Constant

Bit rate : 128 Kbps

Channel(s) : 2 channels

Sampling rate : 44.1 KHz

Compression mode : Lossy

Stream size : 82.4 MiB (12%)

Alignment : Split accross interleaves

Interleave, duration : 42 ms (1.00 video frame)

Interleave, preload duration : 500 ms